<svg width="46" height="46" viewBox="0 0 46 46" fill="none" xmlns="http://www.w3.org/2000/svg">
<circle cx="22.959" cy="22.9019" r="22.522" fill="#B89A9A"/>
<path d="M23.2173 19.2342C21.0533 19.2342 19.2874 21.0002 19.2874 23.1641C19.2874 25.3281 21.0533 27.0941 23.2173 27.0941C25.3812 27.0941 27.1471 25.3281 27.1471 23.1641C27.1471 21.0002 25.3812 19.2342 23.2173 19.2342ZM35.0039 23.1641C35.0039 21.5368 35.0186 19.9241 34.9272 18.2996C34.8358 16.4128 34.4054 14.7382 33.0257 13.3585C31.643 11.9758 29.9714 11.5483 28.0846 11.4569C26.4573 11.3655 24.8446 11.3803 23.2202 11.3803C21.5929 11.3803 19.9802 11.3655 18.3558 11.4569C16.469 11.5483 14.7945 11.9788 13.4148 13.3585C12.0321 14.7412 11.6046 16.4128 11.5132 18.2996C11.4218 19.927 11.4366 21.5397 11.4366 23.1641C11.4366 24.7886 11.4218 26.4042 11.5132 28.0286C11.6046 29.9155 12.035 31.59 13.4148 32.9698C14.7974 34.3525 16.469 34.78 18.3558 34.8714C19.9832 34.9628 21.5958 34.948 23.2202 34.948C24.8476 34.948 26.4602 34.9628 28.0846 34.8714C29.9714 34.78 31.646 34.3495 33.0257 32.9698C34.4084 31.5871 34.8358 29.9155 34.9272 28.0286C35.0216 26.4042 35.0039 24.7915 35.0039 23.1641ZM23.2173 29.2109C19.8711 29.2109 17.1707 26.5103 17.1707 23.1641C17.1707 19.818 19.8711 17.1174 23.2173 17.1174C26.5634 17.1174 29.2639 19.818 29.2639 23.1641C29.2639 26.5103 26.5634 29.2109 23.2173 29.2109ZM29.5115 18.282C28.7303 18.282 28.0994 17.6511 28.0994 16.8698C28.0994 16.0885 28.7303 15.4576 29.5115 15.4576C30.2928 15.4576 30.9237 16.0885 30.9237 16.8698C30.9239 17.0553 30.8875 17.239 30.8166 17.4105C30.7458 17.5819 30.6418 17.7377 30.5106 17.8689C30.3794 18 30.2236 18.1041 30.0522 18.1749C29.8808 18.2458 29.697 18.2822 29.5115 18.282Z" fill="white"/>
</svg>
