<svg width="45" height="77" viewBox="0 0 45 77" fill="none" xmlns="http://www.w3.org/2000/svg">
<path d="M22.1595 39.979C11.4649 39.979 2.57614 31.128 2.57614 20.6547C2.57614 9.81915 11.4649 0.964355 22.1633 0.964355C33.2251 0.964355 41.7467 9.81538 41.7467 20.6547C41.7276 25.7972 39.6606 30.7218 35.9997 34.3461C32.3389 37.9704 27.384 39.9978 22.2239 39.9828L22.1595 39.979ZM22.1595 12.3469C17.6318 12.3469 14.1869 16.1386 14.1869 20.6584C14.1869 25.1707 17.6318 28.604 22.1633 28.604C26.8765 28.604 30.1398 25.1707 30.1398 20.6584C30.1435 16.1348 26.8765 12.3469 22.1595 12.3469ZM29.958 56.0588L41.0236 66.717C43.2004 69.0599 43.2004 72.4931 41.0236 74.6625C38.6689 77.0054 35.0384 77.0054 33.2251 74.6625L22.1633 63.8232L11.4649 74.6625C10.3784 75.7453 8.92474 76.2848 7.28932 76.2848C6.02112 76.2848 4.5712 75.7415 3.29921 74.6625C1.12243 72.4931 1.12243 69.0599 3.29921 66.7132L14.5427 56.055C10.4823 54.8567 6.58721 53.1597 2.94714 51.0032C0.225224 49.5582 -0.316128 45.9476 1.13379 43.235C2.94714 40.5261 6.2104 39.8055 9.11403 41.6127C13.0458 44.0039 17.5629 45.269 22.169 45.269C26.7751 45.269 31.2921 44.0039 35.2239 41.6127C38.1276 39.8055 41.5688 40.5261 43.2004 43.235C44.8358 45.9476 44.1052 49.5544 41.565 51.0032C38.1238 53.1726 34.1337 54.7986 29.9618 56.0625L29.958 56.0588Z" fill="white"/>
</svg>
