<svg width="46" height="46" viewBox="0 0 46 46" fill="none" xmlns="http://www.w3.org/2000/svg">
<circle cx="22.9546" cy="22.9019" r="22.522" fill="#B89A9A"/>
<path d="M22.6734 21.5428C18.7018 21.5428 15.4008 18.2865 15.4008 14.4334C15.4008 10.4471 18.7018 7.18945 22.6748 7.18945C26.7828 7.18945 29.9474 10.4457 29.9474 14.4334C29.9403 16.3253 29.1727 18.1371 27.8132 19.4704C26.4537 20.8038 24.6136 21.5497 22.6973 21.5441L22.6734 21.5428ZM22.6734 11.377C20.992 11.377 19.7126 12.772 19.7126 14.4348C19.7126 16.0949 20.992 17.3579 22.6748 17.3579C24.4251 17.3579 25.637 16.0949 25.637 14.4348C25.6384 12.7706 24.4251 11.377 22.6734 11.377ZM25.5695 27.4584L29.6789 31.3795C30.4872 32.2414 30.4872 33.5045 29.6789 34.3026C28.8044 35.1646 27.4562 35.1646 26.7828 34.3026L22.6748 30.3149L18.7018 34.3026C18.2983 34.701 17.7584 34.8995 17.1511 34.8995C16.6801 34.8995 16.1417 34.6996 15.6693 34.3026C14.8609 33.5045 14.8609 32.2414 15.6693 31.3781L19.8448 27.457C18.3369 27.0162 16.8904 26.3919 15.5386 25.5985C14.5277 25.0669 14.3267 23.7386 14.8652 22.7406C15.5386 21.744 16.7504 21.4789 17.8287 22.1438C19.2889 23.0235 20.9663 23.4889 22.6769 23.4889C24.3875 23.4889 26.0649 23.0235 27.5251 22.1438C28.6034 21.4789 29.8813 21.744 30.4872 22.7406C31.0946 23.7386 30.8232 25.0655 29.8799 25.5985C28.602 26.3966 27.1202 26.9948 25.5709 27.4598L25.5695 27.4584Z" fill="white"/>
</svg>
