<svg width="68" height="68" viewBox="0 0 68 68" fill="none" xmlns="http://www.w3.org/2000/svg">
<g clip-path="url(#clip0)">
<path d="M34.083 63.2812C26.2509 63.2812 18.7395 60.1699 13.2013 54.6317C7.66311 49.0936 4.55179 41.5822 4.55179 33.75C4.55179 25.9178 7.66311 18.4064 13.2013 12.8683C18.7395 7.33007 26.2509 4.21875 34.083 4.21875C41.9152 4.21875 49.4266 7.33007 54.9648 12.8683C60.503 18.4064 63.6143 25.9178 63.6143 33.75C63.6143 41.5822 60.503 49.0936 54.9648 54.6317C49.4266 60.1699 41.9152 63.2812 34.083 63.2812ZM34.083 67.5C43.0341 67.5 51.6185 63.9442 57.9479 57.6149C64.2772 51.2855 67.833 42.7011 67.833 33.75C67.833 24.7989 64.2772 16.2145 57.9479 9.88515C51.6185 3.55579 43.0341 0 34.083 0C25.132 0 16.5475 3.55579 10.2182 9.88515C3.88883 16.2145 0.333038 24.7989 0.333038 33.75C0.333038 42.7011 3.88883 51.2855 10.2182 57.6149C16.5475 63.9442 25.132 67.5 34.083 67.5Z" fill="white"/>
<path d="M26.7888 21.3257C27.1338 21.148 27.5212 21.069 27.9082 21.0973C28.2953 21.1256 28.667 21.2601 28.9826 21.486L43.7482 32.0329C44.0216 32.228 44.2445 32.4856 44.3983 32.7843C44.5521 33.0829 44.6323 33.414 44.6323 33.7499C44.6323 34.0858 44.5521 34.4169 44.3983 34.7156C44.2445 35.0142 44.0216 35.2718 43.7482 35.467L28.9826 46.0138C28.6671 46.2396 28.2956 46.374 27.9087 46.4023C27.5219 46.4306 27.1347 46.3516 26.7898 46.1742C26.4449 45.9967 26.1556 45.7276 25.9537 45.3964C25.7519 45.0651 25.6452 44.6847 25.6455 44.2968V23.2031C25.6451 22.8153 25.7516 22.4349 25.9533 22.1037C26.155 21.7725 26.4441 21.5033 26.7888 21.3257Z" fill="white"/>
</g>
<defs>
<clipPath id="clip0">
<rect width="67.5" height="67.5" fill="white" transform="translate(0.333038)"/>
</clipPath>
</defs>
</svg>
