<svg width="15" height="14" viewBox="0 0 15 14" fill="none" xmlns="http://www.w3.org/2000/svg">
<path d="M13.6609 0.873842C13.4885 0.886384 13.3193 0.926826 13.1598 0.993591H13.1577C13.0047 1.05427 12.277 1.36035 11.1708 1.82431L7.20678 3.49381C4.36235 4.6913 1.56624 5.87053 1.56624 5.87053L1.59954 5.85764C1.59954 5.85764 1.40676 5.92101 1.20539 6.05901C1.08098 6.13818 0.973929 6.24176 0.890709 6.36349C0.791903 6.50847 0.712429 6.73025 0.741963 6.95955C0.790292 7.34725 1.0416 7.57977 1.22203 7.70811C1.40461 7.83806 1.57859 7.89874 1.57859 7.89874H1.58289L4.20501 8.78209C4.32261 9.15959 5.00405 11.3999 5.16783 11.916C5.26449 12.2242 5.35846 12.417 5.47606 12.5641C5.53299 12.6393 5.59957 12.7021 5.67958 12.7526C5.72118 12.7768 5.76553 12.7959 5.81168 12.8095L5.78483 12.8031C5.79289 12.8052 5.79933 12.8117 5.80524 12.8138C5.82672 12.8197 5.84122 12.8219 5.8686 12.8262C6.2837 12.9518 6.61717 12.6941 6.61717 12.6941L6.63596 12.679L8.1841 11.2694L10.7788 13.26L10.8379 13.2853C11.3787 13.5226 11.9264 13.3905 12.2158 13.1575C12.5074 12.9228 12.6207 12.6226 12.6207 12.6226L12.6395 12.5743L14.6446 2.30223C14.7015 2.04878 14.716 1.81143 14.6532 1.58106C14.5884 1.34791 14.4388 1.14739 14.2338 1.01883C14.0617 0.914178 13.8621 0.863666 13.6609 0.873842ZM13.6066 1.97467C13.6045 2.0085 13.6109 2.00474 13.5959 2.06972V2.07563L11.6096 12.2408C11.601 12.2553 11.5865 12.287 11.5467 12.3187C11.5048 12.352 11.4716 12.3729 11.297 12.3037L8.12342 9.87057L6.20637 11.6179L6.60911 9.04575L11.7943 4.21284C12.008 4.01416 11.9366 3.97227 11.9366 3.97227C11.9516 3.72848 11.6139 3.90085 11.6139 3.90085L5.07547 7.95136L5.07332 7.94063L1.93945 6.88544V6.88329L1.9314 6.88168C1.93689 6.87986 1.94227 6.87771 1.9475 6.87524L1.96469 6.86665L1.98134 6.86074C1.98134 6.86074 4.77959 5.68151 7.62402 4.48402C9.04812 3.88421 10.483 3.28009 11.5865 2.81399C12.69 2.35056 13.5057 2.01065 13.5519 1.99239C13.5959 1.97521 13.5749 1.97521 13.6066 1.97521V1.97467Z" fill="white"/>
</svg>
