<svg width="16" height="16" viewBox="0 0 16 16" fill="none" xmlns="http://www.w3.org/2000/svg">
<path d="M0 8.01562C0 6.56517 0.359141 5.22403 1.07742 3.99219C1.79571 2.76036 2.76903 1.78703 3.9974 1.07222C5.22576 0.357406 6.5617 0 8.00521 0C9.08783 0 10.1219 0.211668 11.1074 0.635003C12.0928 1.05834 12.943 1.62741 13.6578 2.34223C14.3726 3.05704 14.9417 3.90891 15.365 4.89785C15.7883 5.88679 16 6.92605 16 8.01562C16 9.09824 15.7883 10.134 15.365 11.123C14.9417 12.1119 14.3726 12.962 13.6578 13.6734C12.943 14.3847 12.0928 14.9503 11.1074 15.3702C10.1219 15.7901 9.08783 16 8.00521 16C6.91564 16 5.87638 15.7883 4.88744 15.365C3.8985 14.9417 3.04663 14.3726 2.33182 13.6578C1.617 12.943 1.04966 12.0946 0.629798 11.1126C0.209933 10.1306 0 9.09824 0 8.01562ZM1.75927 8.01562C1.75927 9.70202 2.37345 11.1663 3.60182 12.4086C4.83019 13.637 6.29798 14.2511 8.00521 14.2511C9.12947 14.2511 10.1705 13.9718 11.1282 13.4131C12.0859 12.8545 12.8458 12.0963 13.4079 11.1386C13.9701 10.1809 14.2511 9.13988 14.2511 8.01562C14.2511 6.89135 13.9701 5.84862 13.4079 4.88744C12.8458 3.92626 12.0859 3.16634 11.1282 2.60768C10.1705 2.04901 9.12947 1.76968 8.00521 1.76968C6.88094 1.76968 5.83995 2.04901 4.88224 2.60768C3.92453 3.16634 3.16461 3.92626 2.60247 4.88744C2.04034 5.84862 1.75927 6.89135 1.75927 8.01562ZM7.39102 8.01562V3.27912C7.39102 3.11256 7.44828 2.97202 7.56278 2.85751C7.67729 2.74301 7.81783 2.68575 7.98439 2.68575C8.15094 2.68575 8.29148 2.74301 8.40599 2.85751C8.52049 2.97202 8.57775 3.11256 8.57775 3.27912V6.98504L10.5556 5.87118C10.6944 5.7879 10.8436 5.76708 11.0033 5.80872C11.1629 5.85036 11.2809 5.94752 11.3572 6.1002C11.4405 6.23899 11.4596 6.3882 11.4144 6.54782C11.3693 6.70744 11.2774 6.82889 11.1386 6.91217L8.37996 8.45283C8.26198 8.55693 8.13012 8.60898 7.98439 8.60898C7.81783 8.60898 7.67729 8.55172 7.56278 8.43722C7.44828 8.32271 7.39102 8.18217 7.39102 8.01562Z" fill="#383833"/>
</svg>
