<svg width="88" height="52" viewBox="0 0 88 52" fill="none" xmlns="http://www.w3.org/2000/svg">
<path fill-rule="evenodd" clip-rule="evenodd" d="M85.9294 4.11174C86.5342 2.12239 85.9294 0.657715 83.0328 0.657715H73.4687C71.0349 0.657715 69.9127 1.922 69.3042 3.31746C69.3042 3.31746 64.4402 14.962 57.5503 22.5259C55.3205 24.7193 54.3076 25.4152 53.0907 25.4152C52.4822 25.4152 51.5677 24.7193 51.5677 22.7263V4.11174C51.5677 1.72161 50.8973 0.657715 48.8716 0.657715H33.8313C32.3119 0.657715 31.3974 1.76533 31.3974 2.8183C31.3974 5.0809 34.8441 5.60556 35.1976 11.9744V25.8123C35.1976 28.8473 34.6401 29.3975 33.4232 29.3975C30.1805 29.3975 22.2923 17.6983 17.6105 4.31213C16.7032 1.70704 15.7851 0.657715 13.3403 0.657715H3.76888C1.03627 0.657715 0.489746 1.922 0.489746 3.31746C0.489746 5.80231 3.73245 18.1464 15.592 34.4729C23.4983 45.6219 34.6292 51.6665 44.769 51.6665C50.85 51.6665 51.6005 50.3257 51.6005 48.0121V39.5847C51.6005 36.8994 52.1762 36.3638 54.1036 36.3638C55.5245 36.3638 57.9548 37.0634 63.6313 42.4375C70.1167 48.81 71.1842 51.6665 74.835 51.6665H84.3991C87.1318 51.6665 88.5017 50.3257 87.7147 47.6732C86.8476 45.0353 83.7506 41.206 79.6444 36.6626C77.4146 34.0757 74.0699 31.2885 73.0533 29.893C71.636 28.1041 72.0405 27.3061 73.0533 25.7139C73.0533 25.7139 84.7125 9.58789 85.9258 4.11174H85.9294Z" fill="white"/>
</svg>
