<svg width="47" height="46" viewBox="0 0 47 46" fill="none" xmlns="http://www.w3.org/2000/svg">
<circle cx="23.4822" cy="22.8975" r="22.522" fill="#B89A9A"/>
<path fill-rule="evenodd" clip-rule="evenodd" d="M36.4517 15.6347C36.6473 14.9913 36.4517 14.5176 35.5148 14.5176H32.4214C31.6342 14.5176 31.2712 14.9265 31.0744 15.3778C31.0744 15.3778 29.5012 19.1442 27.2727 21.5906C26.5515 22.3001 26.2239 22.5251 25.8303 22.5251C25.6335 22.5251 25.3377 22.3001 25.3377 21.6555V15.6347C25.3377 14.8617 25.1209 14.5176 24.4657 14.5176H19.601C19.1096 14.5176 18.8138 14.8758 18.8138 15.2164C18.8138 15.9482 19.9286 16.1179 20.0429 18.1778V22.6536C20.0429 23.6353 19.8626 23.8132 19.469 23.8132C18.4202 23.8132 15.8689 20.0292 14.3546 15.6996C14.0611 14.857 13.7642 14.5176 12.9734 14.5176H9.87762C8.99378 14.5176 8.81702 14.9265 8.81702 15.3778C8.81702 16.1816 9.86584 20.1741 13.7017 25.4548C16.2589 29.0608 19.8591 31.0159 23.1387 31.0159C25.1056 31.0159 25.3483 30.5822 25.3483 29.8339V27.1081C25.3483 26.2396 25.5345 26.0664 26.1579 26.0664C26.6175 26.0664 27.4035 26.2927 29.2396 28.0309C31.3372 30.092 31.6825 31.0159 32.8633 31.0159H35.9567C36.8406 31.0159 37.2837 30.5822 37.0291 29.7243C36.7486 28.8711 35.747 27.6326 34.4189 26.163C33.6976 25.3263 32.6158 24.4248 32.287 23.9735C31.8286 23.3948 31.9594 23.1368 32.287 22.6218C32.287 22.6218 36.0581 17.406 36.4505 15.6347H36.4517Z" fill="white"/>
</svg>
