<svg width="15" height="15" viewBox="0 0 15 15" fill="none" xmlns="http://www.w3.org/2000/svg">
<path d="M6.97306 0.595901C3.17117 0.774898 0.171904 3.91808 0.183359 7.69634C0.185243 8.80847 0.451513 9.90423 0.960204 10.8932L0.202691 14.5455C0.193448 14.5911 0.195869 14.6384 0.209728 14.6829C0.223587 14.7273 0.248437 14.7676 0.281982 14.7999C0.315526 14.8323 0.356681 14.8556 0.40164 14.8678C0.4466 14.88 0.493913 14.8807 0.539205 14.8698L4.14348 14.0221C5.09809 14.4938 6.14605 14.7463 7.21076 14.761C11.0964 14.8204 14.3355 11.7574 14.4565 7.90182C14.5869 3.767 11.1508 0.397573 6.97306 0.595185V0.595901ZM11.274 11.5985C10.7545 12.1161 10.138 12.5261 9.45983 12.805C8.78162 13.0839 8.05505 13.2262 7.32174 13.2237C6.45899 13.2264 5.60744 13.0283 4.83441 12.6452L4.3325 12.3968L2.12225 12.9166L2.58764 10.6748L2.33991 10.1937C1.93831 9.41523 1.73006 8.55152 1.73275 7.67557C1.73275 6.19348 2.31413 4.79946 3.3695 3.75197C4.42142 2.71071 5.84162 2.12642 7.32174 2.12596C8.81529 2.12596 10.2186 2.70305 11.274 3.75125C11.7939 4.26364 12.2066 4.87452 12.4877 5.54821C12.7689 6.22189 12.9129 6.94486 12.9114 7.67486C12.9114 9.14406 12.3208 10.5603 11.274 11.5992V11.5985Z" fill="white"/>
<path d="M10.7868 9.21152L9.40421 8.81773C9.31499 8.79212 9.22053 8.79098 9.13072 8.8144C9.04091 8.83783 8.95905 8.88498 8.89371 8.95091L8.55576 9.29315C8.48584 9.36397 8.39659 9.41262 8.29917 9.43299C8.20175 9.45337 8.10048 9.44457 8.00804 9.40771C7.35434 9.14494 5.97821 7.93063 5.62667 7.32275C5.57739 7.2369 5.55487 7.13828 5.56202 7.03954C5.56916 6.9408 5.60563 6.84645 5.66676 6.76858L5.96175 6.38911C6.01854 6.3164 6.05447 6.22961 6.06569 6.13804C6.07692 6.04647 6.06302 5.95357 6.02547 5.8693L5.44409 4.56334C5.41121 4.49035 5.36184 4.42598 5.29988 4.37529C5.23791 4.3246 5.16503 4.28897 5.08697 4.2712C5.00891 4.25344 4.92779 4.25403 4.84999 4.27291C4.77219 4.2918 4.69983 4.32847 4.6386 4.38005C4.25269 4.70439 3.79446 5.19627 3.73933 5.74257C3.64124 6.70414 4.05651 7.91631 5.62738 9.37262C7.44241 11.0545 8.89657 11.2771 9.84239 11.0487C10.3794 10.9199 10.809 10.4022 11.0789 9.97906C11.1221 9.91185 11.1489 9.83544 11.1571 9.75599C11.1654 9.67654 11.1549 9.59625 11.1265 9.5216C11.0981 9.44694 11.0525 9.37999 10.9935 9.32614C10.9345 9.27228 10.8637 9.23303 10.7868 9.21152Z" fill="white"/>
</svg>
