<svg width="46" height="46" viewBox="0 0 46 46" fill="none" xmlns="http://www.w3.org/2000/svg">
<circle cx="23.4778" cy="22.8975" r="22.522" fill="#B89A9A"/>
<path d="M35.5236 17.2989C35.3805 16.7602 35.0999 16.269 34.7099 15.8743C34.3199 15.4797 33.8342 15.1955 33.3014 15.0502C31.34 14.5171 23.4779 14.5171 23.4779 14.5171C23.4779 14.5171 15.6158 14.5171 13.6545 15.0474C13.1214 15.1922 12.6355 15.4762 12.2454 15.871C11.8553 16.2657 11.5749 16.7572 11.4322 17.2961C10.9075 19.281 10.9075 23.4211 10.9075 23.4211C10.9075 23.4211 10.9075 27.5612 11.4322 29.5434C11.7212 30.6379 12.5742 31.5 13.6545 31.7921C15.6158 32.3252 23.4779 32.3252 23.4779 32.3252C23.4779 32.3252 31.34 32.3252 33.3014 31.7921C34.3844 31.5 35.2346 30.6379 35.5236 29.5434C36.0483 27.5612 36.0483 23.4211 36.0483 23.4211C36.0483 23.4211 36.0483 19.281 35.5236 17.2989ZM20.9807 27.2209V19.6213L27.4904 23.3928L20.9807 27.2209Z" fill="white"/>
</svg>
