<svg width="89" height="64" viewBox="0 0 89 64" fill="none" xmlns="http://www.w3.org/2000/svg">
<path d="M88.1 31.7711C88.1 31.5562 88.1 31.3121 88.0903 31.0288C88.0805 30.2377 88.061 29.3489 88.0415 28.4014C87.9634 25.6764 87.8268 22.9611 87.6121 20.4021C87.3193 16.8762 86.8899 13.9362 86.3043 11.7289C85.6864 9.42527 84.4751 7.32434 82.7916 5.63607C81.1081 3.94779 79.0114 2.7313 76.7109 2.1082C73.949 1.36589 68.5423 0.906833 60.93 0.623585C57.3093 0.486844 53.4349 0.398939 49.5604 0.350103C48.2039 0.330569 46.9449 0.320802 45.8129 0.311035H42.9436C41.8115 0.320802 40.5526 0.330569 39.196 0.350103C35.3216 0.398939 31.4471 0.486844 27.8264 0.623585C20.2141 0.9166 14.7977 1.37566 12.0456 2.1082C9.74433 2.72977 7.64674 3.94575 5.96301 5.63426C4.27928 7.32277 3.06855 9.42451 2.45215 11.7289C1.85683 13.9362 1.43718 16.8762 1.1444 20.4021C0.929694 22.9611 0.793064 25.6764 0.714989 28.4014C0.685711 29.3489 0.675952 30.2377 0.666192 31.0288C0.666192 31.3121 0.656433 31.5562 0.656433 31.7711V32.3181C0.656433 32.533 0.656433 32.7771 0.666192 33.0604C0.675952 33.8515 0.69547 34.7403 0.714989 35.6877C0.793064 38.4128 0.929694 41.1281 1.1444 43.6871C1.43718 47.213 1.86659 50.1529 2.45215 52.3603C3.70134 57.0388 7.37085 60.7308 12.0456 61.981C14.7977 62.7233 20.2141 63.1824 27.8264 63.4656C31.4471 63.6023 35.3216 63.6903 39.196 63.7391C40.5526 63.7586 41.8115 63.7684 42.9436 63.7782H45.8129C46.9449 63.7684 48.2039 63.7586 49.5604 63.7391C53.4349 63.6903 57.3093 63.6023 60.93 63.4656C68.5423 63.1726 73.9587 62.7135 76.7109 61.981C81.3856 60.7308 85.0551 57.0486 86.3043 52.3603C86.8996 50.1529 87.3193 47.213 87.6121 43.6871C87.8268 41.1281 87.9634 38.4128 88.0415 35.6877C88.0707 34.7403 88.0805 33.8515 88.0903 33.0604C88.0903 32.7771 88.1 32.533 88.1 32.3181V31.7711ZM81.0733 32.279C81.0733 32.4841 81.0733 32.7088 81.0635 32.9725C81.0538 33.7343 81.0343 34.5743 81.0148 35.4826C80.9464 38.0807 80.8098 40.6788 80.6049 43.0913C80.3414 46.2363 79.9705 48.8148 79.5118 50.5436C78.9067 52.7999 77.1305 54.5872 74.8859 55.183C72.8364 55.73 67.6737 56.1695 60.6568 56.4332C57.1044 56.57 53.2787 56.6579 49.4628 56.7067C48.1258 56.7262 46.8864 56.736 45.7738 56.736H42.9826L39.2936 56.7067C35.4777 56.6579 31.6618 56.57 28.0997 56.4332C21.0827 56.1597 15.9103 55.73 13.8706 55.183C11.6259 54.5775 9.84972 52.7999 9.24464 50.5436C8.78595 48.8148 8.4151 46.2363 8.1516 43.0913C7.94665 40.6788 7.81978 38.0807 7.74171 35.4826C7.71243 34.5743 7.70267 33.7245 7.69291 32.9725C7.69291 32.7088 7.68315 32.4743 7.68315 32.279V31.8102C7.68315 31.6051 7.68315 31.3804 7.69291 31.1167C7.70267 30.3549 7.72219 29.5149 7.74171 28.6065C7.81002 26.0085 7.94665 23.4104 8.1516 20.9979C8.4151 17.8529 8.78595 15.2744 9.24464 13.5456C9.84972 11.2893 11.6259 9.50195 13.8706 8.90615C15.92 8.35919 21.0827 7.91966 28.0997 7.65595C31.6521 7.51921 35.4777 7.43131 39.2936 7.38247C40.6306 7.36294 41.8701 7.35317 42.9826 7.35317H45.7738L49.4628 7.38247C53.2787 7.43131 57.0946 7.51921 60.6568 7.65595C67.6737 7.92943 72.8462 8.35919 74.8859 8.90615C77.1305 9.51172 78.9067 11.2893 79.5118 13.5456C79.9705 15.2744 80.3414 17.8529 80.6049 20.9979C80.8098 23.4104 80.9367 26.0085 81.0148 28.6065C81.044 29.5149 81.0538 30.3646 81.0635 31.1167C81.0635 31.3804 81.0733 31.6148 81.0733 31.8102V32.279ZM35.6924 45.1326L58.3341 31.9469L35.6924 18.9566V45.1326Z" fill="white"/>
</svg>
